<svg width="442" height="87" viewBox="0 0 442 87" fill="none" xmlns="http://www.w3.org/2000/svg">
<path fill-rule="evenodd" clip-rule="evenodd" d="M232.111 0.932617C236.373 0.932617 239.77 4.33263 239.77 8.46596C239.77 12.5993 236.307 15.9993 232.111 15.9993C227.914 15.9993 224.451 12.5993 224.451 8.46596C224.451 4.33263 227.914 0.932617 232.111 0.932617Z" fill="#832990"/>
<path fill-rule="evenodd" clip-rule="evenodd" d="M231.244 4.60059L232.776 6.46726L235.174 5.86725L234.042 8.00059L235.973 9.8006L233.442 9.86725L232.976 12.4006L231.311 10.3339L228.98 11.0673L229.912 9.00059L228.114 7.26725L230.711 7.00059L231.244 4.60059Z" fill="#FFCD32"/>
<path fill-rule="evenodd" clip-rule="evenodd" d="M54.1353 40.4676L62.661 39.5342L64.2596 31.2676L69.3218 38.0009L77.2481 35.3342L73.9843 43.1343L80.2454 48.7343L71.7197 49.7343L70.0545 58.0009L64.9923 51.0676L57.066 53.8009L60.3964 46.0676L54.1353 40.4676Z" fill="#E0E0E0"/>
<path fill-rule="evenodd" clip-rule="evenodd" d="M104.757 21.5335C105.956 22.6002 106.689 24.1335 107.155 25.9335L112.816 48.6002L124.073 27.2668C124.739 25.9335 125.605 24.8668 126.737 24.2002C130.401 21.9335 135.33 24.2002 136.196 28.4002C136.529 30.2002 135.929 32.4668 135.063 34.0668L107.887 82.6668C106.622 85.0002 104.89 86.5335 102.026 86.5335C98.962 86.5335 96.3643 84.3335 95.8315 81.4002C95.4984 79.6002 95.9647 77.6668 96.8972 76.1335L104.49 63.4668L94.4327 29.6668C93.8999 27.8002 93.8332 25.8668 94.5659 24.2002C96.0979 20.1335 101.493 18.6002 104.757 21.5335Z" fill="#E0E0E0"/>
<path fill-rule="evenodd" clip-rule="evenodd" d="M151.582 28.333L151.715 47.533C151.782 59.933 165.57 59.933 165.57 47.5997V28.7997C165.57 18.4664 179.624 19.6664 179.091 28.6664L179.024 50.1331C178.958 75.9331 137.994 75.933 137.994 50.333V28.1997C137.994 19.3997 151.515 19.1997 151.582 28.333Z" fill="#E0E0E0"/>
<path fill-rule="evenodd" clip-rule="evenodd" d="M218.123 68.8006C223.185 68.8006 224.85 64.1339 224.85 59.8006V36.8006C224.85 32.5339 223.452 28.8006 220.987 26.0006C215.192 19.4672 201.738 19.0006 196.342 25.8006C195.343 23.1339 192.945 21.1339 189.881 21.1339C185.219 21.1339 183.087 25.5339 183.087 29.6006V60.5339C183.087 70.9339 196.675 71.8006 196.675 60.0006V40.8672C196.675 29.8672 211.262 29.4673 211.262 40.7339V60.0673C211.329 64.3339 213.261 68.8006 218.123 68.8006Z" fill="#E0E0E0"/>
<path fill-rule="evenodd" clip-rule="evenodd" d="M234.308 21.2666C237.972 21.2666 240.903 24.2666 240.903 27.8666V61.7999C240.903 65.4666 237.905 68.3999 234.308 68.3999C230.645 68.3999 227.714 65.3999 227.714 61.7999V27.8666C227.714 24.2666 230.645 21.2666 234.308 21.2666Z" fill="#E0E0E0"/>
<path fill-rule="evenodd" clip-rule="evenodd" d="M248.696 21.334C252.226 21.334 254.158 23.534 255.157 26.6006L263.283 51.534L270.876 26.534C271.742 23.6006 273.94 21.4673 277.204 21.4673C280.801 21.4673 283.665 24.334 283.665 27.934C283.665 28.8006 283.465 29.6673 283.132 30.4673L270.743 62.934C269.344 66.6006 267.679 69.334 263.083 69.334C259.087 69.334 256.955 67.0006 255.623 63.6673L243.501 32.734C243.167 31.934 242.768 31.0007 242.435 30.134C242.168 29.4007 242.035 28.6673 242.035 27.8673C242.102 24.2673 245.032 21.334 248.696 21.334Z" fill="#E0E0E0"/>
<path fill-rule="evenodd" clip-rule="evenodd" d="M296.986 40.0665C298.052 28.6665 315.17 30.1332 314.837 40.0665H296.986ZM296.986 48.9998H323.03C325.694 48.9998 328.092 47.6665 328.092 44.7332V41.3998C328.092 35.5332 325.294 30.1332 321.031 26.3998C315.903 21.8665 308.576 19.7332 301.915 20.9332C292.057 22.6665 284.73 31.3999 283.265 41.4665C281.533 53.4665 288.527 64.3332 299.184 67.9332C307.577 70.7332 319.033 68.7332 325.228 62.3332C326.893 60.5998 327.559 57.8665 326.76 55.6665C325.228 51.3998 320.898 52.1999 317.701 53.7999C314.038 55.6665 300.05 61.7998 296.986 48.9998Z" fill="#E0E0E0"/>
<path fill-rule="evenodd" clip-rule="evenodd" d="M337.417 21.2663C340.414 21.2663 342.945 23.2663 343.745 25.933C347.275 21.8663 352.47 18.9996 357.333 22.533C361.995 25.933 360.596 31.333 355.268 33.5997C353.136 34.4663 351.138 34.8663 348.94 35.933C345.277 37.7997 344.011 39.4663 344.011 43.933V61.8663C344.011 65.533 341.014 68.4663 337.417 68.4663C333.753 68.4663 330.823 65.4663 330.823 61.8663V27.933C330.823 24.2663 333.753 21.2663 337.417 21.2663Z" fill="#E0E0E0"/>
<path fill-rule="evenodd" clip-rule="evenodd" d="M385.241 35.1324C385.241 35.1324 388.838 37.0658 391.969 34.5324C391.969 34.5324 396.365 30.5324 392.035 25.7324C386.507 19.3324 373.518 19.2658 366.924 23.6658C362.395 26.6658 359.93 32.7324 361.129 38.0658C361.662 40.2658 363.127 43.7991 367.457 46.3324C370.121 47.8658 373.785 49.4658 376.649 50.5324C377.848 50.9991 380.246 52.0658 380.978 53.7991C381.511 55.1325 380.978 56.1991 379.713 56.7991C378.447 57.3991 375.983 57.5991 371.653 55.3324C369.588 54.2658 367.79 53.2658 365.326 53.1325C360.73 52.9324 358.665 57.7324 360.064 61.5991C361.063 64.3991 363.66 66.6658 366.391 67.7324C372.586 70.1991 381.311 70.1991 387.04 66.9991C392.435 63.9991 396.365 57.1991 394.766 51.1325C393.501 46.0658 387.839 42.1324 383.31 40.3991C381.578 39.7324 377.648 38.1324 375.516 36.6658C374.184 35.7991 373.385 34.3324 375.05 33.1991C375.916 32.5991 377.381 32.3991 378.447 32.5991C379.513 32.7991 381.778 33.3991 385.241 35.1324Z" fill="#E0E0E0"/>
<path fill-rule="evenodd" clip-rule="evenodd" d="M410.619 40.0665C411.685 28.6665 428.803 30.1332 428.47 40.0665H410.619ZM410.686 48.9998H436.729C439.394 48.9998 441.792 47.6665 441.792 44.7332V41.3998C441.792 35.5332 438.994 30.1332 434.731 26.3998C429.602 21.8665 422.276 19.7332 415.615 20.9332C405.757 22.6665 398.43 31.3999 396.965 41.4665C395.233 53.4665 402.227 64.3332 412.884 67.9332C421.276 70.7332 432.733 68.7332 438.927 62.3332C440.593 60.5998 441.259 57.8665 440.459 55.6665C438.927 51.3998 434.598 52.1999 431.401 53.7999C427.737 55.6665 413.683 61.7998 410.686 48.9998Z" fill="#E0E0E0"/>
<path fill-rule="evenodd" clip-rule="evenodd" d="M103.758 21.0005C104.957 22.0672 105.689 23.6005 106.156 25.4005L111.817 48.0672L123.074 26.7338C123.74 25.4005 124.606 24.3338 125.738 23.6672C129.402 21.4005 134.331 23.6671 135.197 27.8671C135.53 29.6671 134.93 31.9338 134.064 33.5338L106.888 82.1338C105.623 84.4672 103.891 86.0005 101.027 86.0005C97.963 86.0005 95.3653 83.8005 94.8324 80.8671C94.4994 79.0672 94.9657 77.1338 95.8982 75.6005L103.491 62.9338L93.4337 29.0005C92.9008 27.1338 92.8342 25.2005 93.5669 23.5338C95.0989 19.6005 100.494 18.0672 103.758 21.0005Z" fill="#C5C5C5"/>
<path fill-rule="evenodd" clip-rule="evenodd" d="M150.583 27.8672L150.716 47.0672C150.783 59.4672 164.571 59.4672 164.571 47.1339V28.3339C164.571 18.0006 178.625 19.2006 178.092 28.2006L178.025 49.6672C177.959 75.4672 136.995 75.4672 136.995 49.8672V27.7339C136.995 18.8672 150.516 18.6672 150.583 27.8672Z" fill="#C5C5C5"/>
<path fill-rule="evenodd" clip-rule="evenodd" d="M217.124 68.2664C222.186 68.2664 223.851 63.5997 223.851 59.2664V36.2664C223.851 31.9997 222.453 28.2664 219.988 25.4664C214.193 18.9331 200.738 18.4664 195.343 25.2664C194.344 22.5997 191.946 20.5997 188.882 20.5997C184.22 20.5997 182.088 24.9997 182.088 29.0664V59.9997C182.088 70.3997 195.676 71.2664 195.676 59.4664V40.3331C195.676 29.3331 210.263 28.9331 210.263 40.1997V59.5331C210.33 63.7997 212.262 68.2664 217.124 68.2664Z" fill="#C5C5C5"/>
<path fill-rule="evenodd" clip-rule="evenodd" d="M233.309 20.8008C236.973 20.8008 239.904 23.8008 239.904 27.4008V61.3341C239.904 65.0008 236.906 67.9341 233.309 67.9341C229.646 67.9341 226.715 64.9341 226.715 61.3341V27.4008C226.715 23.8008 229.646 20.8008 233.309 20.8008Z" fill="#C5C5C5"/>
<path fill-rule="evenodd" clip-rule="evenodd" d="M247.697 20.8008C251.227 20.8008 253.159 23.0008 254.158 26.0674L262.284 51.0008L269.877 26.0008C270.743 23.0674 272.941 20.9341 276.205 20.9341C279.802 20.9341 282.666 23.8008 282.666 27.4008C282.666 28.2674 282.466 29.1341 282.133 29.9341L269.744 62.4008C268.345 66.0674 266.68 68.8008 262.084 68.8008C258.088 68.8008 255.956 66.4674 254.624 63.1341L242.502 32.2008C242.168 31.4008 241.769 30.4674 241.436 29.6008C241.169 28.8674 241.036 28.1341 241.036 27.3341C241.103 23.7341 244.033 20.8008 247.697 20.8008Z" fill="#C5C5C5"/>
<path fill-rule="evenodd" clip-rule="evenodd" d="M295.987 39.5997C297.053 28.1997 314.171 29.6664 313.838 39.5997H295.987ZM295.987 48.533H322.031C324.695 48.533 327.093 47.1997 327.093 44.2664V40.933C327.093 35.0664 324.295 29.6664 320.032 25.933C314.904 21.3997 307.577 19.2664 300.916 20.4664C291.058 22.1997 283.731 30.933 282.266 40.9997C280.534 52.9997 287.528 63.8664 298.185 67.4664C306.578 70.2664 318.034 68.2664 324.229 61.8664C325.894 60.133 326.56 57.3997 325.761 55.1997C324.229 50.933 319.899 51.733 316.702 53.333C313.039 55.133 299.051 61.2664 295.987 48.533Z" fill="#C5C5C5"/>
<path fill-rule="evenodd" clip-rule="evenodd" d="M336.418 20.8005C339.416 20.8005 341.947 22.8005 342.746 25.4672C346.276 21.4005 351.472 18.5338 356.334 22.0672C360.997 25.4672 359.598 30.8672 354.269 33.1338C352.138 34.0005 350.14 34.4005 347.941 35.4672C344.278 37.3338 343.013 39.0005 343.013 43.4672V61.4005C343.013 65.0672 340.015 68.0005 336.418 68.0005C332.755 68.0005 329.824 65.0005 329.824 61.4005V27.4672C329.824 23.8005 332.755 20.8005 336.418 20.8005Z" fill="#C5C5C5"/>
<path fill-rule="evenodd" clip-rule="evenodd" d="M384.242 34.6666C384.242 34.6666 387.839 36.6 390.969 34.0666C390.969 34.0666 395.366 30.0666 391.036 25.2666C385.508 18.8666 372.519 18.8 365.925 23.2C361.396 26.2 358.931 32.2666 360.13 37.6C360.663 39.8 362.128 43.3333 366.458 45.8666C369.122 47.4 372.786 49 375.65 50.0666C376.849 50.5333 379.247 51.6 379.979 53.3333C380.512 54.6666 379.979 55.7333 378.714 56.3333C377.448 56.9333 374.984 57.1333 370.654 54.8666C368.589 53.8 366.791 52.8 364.326 52.6666C359.731 52.4666 357.666 57.2666 359.064 61.1333C360.064 63.9333 362.661 66.2 365.392 67.2666C371.587 69.7333 380.312 69.7333 386.041 66.5333C391.436 63.5333 395.366 56.7333 393.767 50.6666C392.501 45.6 386.84 41.6666 382.311 39.9333C380.579 39.2666 376.649 37.6666 374.517 36.2C373.185 35.3333 372.386 33.8666 374.051 32.7333C374.917 32.1333 376.382 31.9333 377.448 32.1333C378.514 32.2666 380.779 32.8666 384.242 34.6666Z" fill="#C5C5C5"/>
<path fill-rule="evenodd" clip-rule="evenodd" d="M409.62 39.5997C410.685 28.1997 427.804 29.6664 427.471 39.5997H409.62ZM409.686 48.533H435.73C438.394 48.533 440.792 47.1997 440.792 44.2664V40.933C440.792 35.0664 437.995 29.6664 433.732 25.933C428.603 21.3997 421.276 19.2664 414.615 20.4664C404.757 22.1997 397.43 30.933 395.965 40.9997C394.233 52.9997 401.227 63.8664 411.884 67.4664C420.277 70.2664 431.733 68.2664 437.928 61.8664C439.593 60.133 440.259 57.3997 439.46 55.1997C437.928 50.933 433.598 51.733 430.401 53.333C426.738 55.133 412.684 61.2664 409.686 48.533Z" fill="#C5C5C5"/>
<path fill-rule="evenodd" clip-rule="evenodd" d="M102.759 20.0004C103.958 21.067 104.69 22.6004 105.157 24.4004L110.818 47.067L122.075 25.7337C122.741 24.4004 123.607 23.3337 124.739 22.667C128.403 20.4004 133.332 22.667 134.198 26.867C134.531 28.667 133.931 30.9337 133.065 32.5337L105.889 81.1337C104.624 83.467 102.892 85.0004 100.028 85.0004C96.964 85.0004 94.3663 82.8004 93.8334 79.867C93.5004 78.067 93.9666 76.1337 94.8991 74.5337L102.492 61.867L92.4347 28.067C91.9018 26.2004 91.8352 24.267 92.5679 22.6004C94.1665 18.6004 99.4951 17.067 102.759 20.0004Z" fill="#1B9E49"/>
<path fill-rule="evenodd" clip-rule="evenodd" d="M1.99854 18.9679C1.99854 14.9679 4.79605 13.1679 7.99322 12.5012L37.567 6.70118C39.2322 6.36785 41.2304 6.50118 42.6958 7.36785C44.4942 8.43451 45.7597 10.3679 45.7597 12.6345C45.7597 16.0345 43.6949 18.0345 40.7641 18.7678L31.9719 20.9679L39.8316 62.1679C39.9648 62.7012 40.0315 63.2345 40.0315 63.8345C40.0315 67.6345 36.9675 70.7012 33.1709 70.7012C30.8396 70.7012 28.7748 69.5678 27.5758 67.7678C26.5767 66.3012 26.5101 65.1679 26.1771 63.5679L18.1842 23.6345L9.45858 24.9679C5.72856 25.4345 1.99854 23.3012 1.99854 18.9679Z" fill="#E0E0E0"/>
<path fill-rule="evenodd" clip-rule="evenodd" d="M0.999512 18.4337C0.999512 14.4337 3.79703 12.6337 6.99419 11.967L36.5679 6.167C38.2331 5.83367 40.2314 5.967 41.6967 6.83367C43.4951 7.90033 44.7607 9.83366 44.7607 12.1003C44.7607 15.5003 42.6958 17.5003 39.7651 18.2337L30.9729 20.4337L38.8326 61.6337C38.9658 62.167 39.0324 62.7003 39.0324 63.3003C39.0324 67.1003 35.9685 70.167 32.1718 70.167C29.8406 70.167 27.7757 69.0337 26.5768 67.2337C25.5777 65.767 25.5111 64.6337 25.1781 63.0337L17.1851 23.1003L8.45956 24.4337C4.72954 24.967 0.999512 22.767 0.999512 18.4337Z" fill="#C5C5C5"/>
<path fill-rule="evenodd" clip-rule="evenodd" d="M0 17.4346C0 13.4346 2.79752 11.6346 5.99468 10.968L35.5684 5.16798C37.2336 4.83464 39.2319 4.96798 40.6972 5.83464C42.4956 6.90131 43.7612 8.83464 43.7612 11.1013C43.7612 14.5013 41.6963 16.5013 38.7656 17.2346L29.9734 19.4346L37.8331 60.6346C37.9663 61.168 38.0329 61.7013 38.0329 62.3013C38.0329 66.1013 34.969 69.168 31.1723 69.168C28.8411 69.168 26.7762 68.0346 25.5773 66.2346C24.5782 64.768 24.5116 63.6346 24.1785 62.0346L16.1856 22.1013L7.46005 23.4346C3.73002 23.968 0 21.768 0 17.4346Z" fill="#1B9E49"/>
<path fill-rule="evenodd" clip-rule="evenodd" d="M149.584 26.8672L149.717 46.0672C149.783 58.4672 163.571 58.4672 163.571 46.1339V27.3339C163.571 17.0006 177.625 18.2006 177.092 27.2006L177.026 48.6672C176.959 74.4672 135.996 74.4672 135.996 48.8672V26.7339C135.996 17.8672 149.517 17.6672 149.584 26.8672Z" fill="#832990"/>
<path fill-rule="evenodd" clip-rule="evenodd" d="M216.125 67.2664C221.187 67.2664 222.852 62.5997 222.852 58.2664V35.2664C222.852 30.9997 221.454 27.2664 218.989 24.4664C213.194 17.9331 199.739 17.4664 194.344 24.2664C193.345 21.5997 190.947 19.5997 187.883 19.5997C183.221 19.5997 181.089 23.9997 181.089 28.0664V58.9997C181.089 69.3997 194.677 70.2664 194.677 58.4664V39.3331C194.677 28.3331 209.264 27.9331 209.264 39.1997V58.5331C209.331 62.7997 211.329 67.2664 216.125 67.2664Z" fill="#832990"/>
<path fill-rule="evenodd" clip-rule="evenodd" d="M232.31 19.7998C235.974 19.7998 238.905 22.7998 238.905 26.3998V60.3331C238.905 63.9998 235.907 66.9331 232.31 66.9331C228.647 66.9331 225.716 63.9331 225.716 60.3331V26.3998C225.716 22.7998 228.647 19.7998 232.31 19.7998Z" fill="#832990"/>
<path fill-rule="evenodd" clip-rule="evenodd" d="M246.697 19.7998C250.228 19.7998 252.159 21.9998 253.158 25.0665L261.284 49.9998L268.878 24.9998C269.744 22.0665 271.942 19.9331 275.205 19.9331C278.802 19.9331 281.666 22.7998 281.666 26.3998C281.666 27.2665 281.467 28.1331 281.133 28.9331L268.744 61.4665C267.346 65.1331 265.681 67.8664 261.085 67.8664C257.088 67.8664 254.957 65.5331 253.625 62.1998L241.502 31.2665C241.169 30.4665 240.769 29.5331 240.436 28.6665C240.17 27.9331 240.037 27.1998 240.037 26.3998C240.103 22.7331 243.034 19.7998 246.697 19.7998Z" fill="#832990"/>
<path fill-rule="evenodd" clip-rule="evenodd" d="M294.988 38.5997C296.054 27.1997 313.172 28.6664 312.839 38.5997H294.988ZM294.988 47.533H321.032C323.696 47.533 326.094 46.1997 326.094 43.2664V39.933C326.094 34.0664 323.296 28.6664 319.033 24.933C313.905 20.3997 306.578 18.2664 299.917 19.4664C290.059 21.1997 282.732 29.933 281.267 39.9997C279.535 51.9997 286.529 62.8664 297.186 66.4664C305.579 69.2664 317.035 67.2664 323.23 60.8664C324.895 59.133 325.561 56.3997 324.762 54.1997C323.23 49.933 318.9 50.733 315.703 52.333C312.04 54.133 298.052 60.2664 294.988 47.533Z" fill="#832990"/>
<path fill-rule="evenodd" clip-rule="evenodd" d="M335.419 19.8005C338.416 19.8005 340.947 21.8005 341.747 24.4672C345.277 20.4005 350.472 17.5338 355.334 21.0672C359.997 24.4672 358.598 29.8672 353.27 32.1338C351.138 33.0005 349.14 33.4005 346.942 34.4672C343.279 36.3338 342.013 38.0005 342.013 42.4672V60.4005C342.013 64.0672 339.016 67.0005 335.419 67.0005C331.755 67.0005 328.825 64.0005 328.825 60.4005V26.4672C328.825 22.8005 331.755 19.8005 335.419 19.8005Z" fill="#832990"/>
<path fill-rule="evenodd" clip-rule="evenodd" d="M383.243 33.6666C383.243 33.6666 386.84 35.6 389.97 33.0666C389.97 33.0666 394.367 29.0666 390.037 24.2666C384.509 17.8666 371.52 17.8 364.926 22.2C360.397 25.2 357.932 31.2666 359.131 36.6C359.664 38.8 361.129 42.3333 365.459 44.8666C368.123 46.4 371.787 48 374.651 49.0666C375.85 49.5333 378.248 50.6 378.98 52.3333C379.513 53.6666 378.98 54.7333 377.715 55.3333C376.449 55.9333 373.985 56.1333 369.655 53.8666C367.59 52.8 365.792 51.8 363.327 51.6666C358.732 51.4666 356.667 56.2666 358.065 60.1333C359.065 62.9333 361.662 65.2 364.393 66.2666C370.588 68.7333 379.313 68.7333 385.042 65.5333C390.437 62.5333 394.367 55.7333 392.768 49.6666C391.502 44.6 385.841 40.6666 381.312 38.9333C379.58 38.2666 375.65 36.6666 373.518 35.2C372.186 34.3333 371.387 32.8666 373.052 31.7333C373.918 31.1333 375.383 30.9333 376.449 31.1333C377.515 31.2666 379.78 31.8666 383.243 33.6666Z" fill="#832990"/>
<path fill-rule="evenodd" clip-rule="evenodd" d="M408.621 38.5997C409.686 27.1997 426.804 28.6664 426.471 38.5997H408.621ZM408.687 47.533H434.731C437.395 47.533 439.793 46.1997 439.793 43.2664V39.933C439.793 34.0664 436.995 28.6664 432.733 24.933C427.604 20.3997 420.277 18.2664 413.616 19.4664C403.758 21.1997 396.431 29.933 394.966 39.9997C393.234 51.9997 400.228 62.8664 410.885 66.4664C419.278 69.2664 430.734 67.2664 436.929 60.8664C438.594 59.133 439.26 56.3997 438.461 54.1997C436.929 49.933 432.599 50.733 429.402 52.333C425.739 54.133 411.685 60.2664 408.687 47.533Z" fill="#832990"/>
<path fill-rule="evenodd" clip-rule="evenodd" d="M380.246 75.1333C382.444 75.1333 384.309 76.6 384.842 78.6H381.845C381.512 77.8667 380.912 77.4 380.246 77.4C379.247 77.4 378.381 78.5333 378.381 79.8667C378.381 81.2 379.247 82.3333 380.246 82.3333C380.846 82.3333 381.379 81.9333 381.712 81.3333H384.776C384.176 83.2667 382.378 84.6 380.246 84.6C377.649 84.6 375.517 82.4667 375.517 79.8667C375.517 77.2667 377.649 75.1333 380.246 75.1333ZM390.437 77.4667C391.436 77.4667 392.302 78.6 392.302 79.9333C392.302 81.2667 391.436 82.4 390.437 82.4C389.438 82.4 388.572 81.2667 388.572 79.9333C388.572 78.5333 389.438 77.4667 390.437 77.4667ZM390.437 75.1333C393.035 75.1333 395.166 77.2667 395.166 79.8667C395.166 82.4667 393.035 84.6 390.437 84.6C387.839 84.6 385.708 82.4667 385.708 79.8667C385.708 77.2667 387.839 75.1333 390.437 75.1333ZM396.965 84.5333V75.3333H400.029V76.5333C401.427 74.4 404.625 74.6667 405.824 76.8C407.755 73.8667 412.951 74.6 412.951 78.6667V84.5333H409.953V79.0667C409.953 77 406.556 77.0667 406.556 79.2V84.5333H403.492V79.0667C403.492 76.9333 400.095 77.2667 400.095 78.9333V84.5333H396.965ZM416.081 81.4C416.947 81.4 417.613 82.0667 417.613 82.9333C417.613 83.8 416.947 84.4667 416.081 84.4667C415.215 84.4667 414.549 83.8 414.549 82.9333C414.549 82.0667 415.215 81.4 416.081 81.4ZM423.808 77.5333C424.873 77.5333 425.739 78.6 425.739 79.8667C425.739 81.1333 424.873 82.2 423.808 82.2C422.742 82.2 421.876 81.1333 421.876 79.8667C421.876 78.6 422.742 77.5333 423.808 77.5333ZM422.942 75C423.941 75 424.873 75.4667 425.606 76.2V75.3333H428.67V84.6H425.606V83.6667C424.873 84.4 423.941 84.8667 422.942 84.8667C420.677 84.8667 418.812 82.6667 418.812 79.9333C418.879 77.2 420.677 75 422.942 75ZM440.393 75.2667V84.4667H437.329V83.2667C436.063 85.2 433.399 85.2 431.934 83.6C431.201 82.8 430.868 81.3333 430.868 80.2667V75.2667H433.932V80.7333C433.932 82.8667 437.329 82.5333 437.329 80.8667V75.2667H440.393ZM372.853 81.4C373.719 81.4 374.385 82.0667 374.385 82.9333C374.385 83.8 373.719 84.4667 372.853 84.4667C371.987 84.4667 371.321 83.8 371.321 82.9333C371.321 82.0667 371.987 81.4 372.853 81.4Z" fill="#656B7C"/>
<path d="M82.0105 14.6422C81.8499 14.581 81.6969 14.5198 81.5363 14.4587C81.3834 14.3898 81.2228 14.321 81.0698 14.2598C70.3935 9.9388 50.425 24.8214 44.3527 39.8876C37.5767 56.6975 40.8576 69.8518 56.1532 76.0542C56.3138 76.1153 56.4668 76.1765 56.6274 76.2377C56.7804 76.3065 56.941 76.3754 57.0939 76.4365C72.3895 82.6389 83.8766 75.4576 90.6525 58.6477C96.7249 43.5815 92.6868 18.9785 82.0105 14.6422Z" fill="#E0E0E0"/>
<path d="M81.0105 13.6422C80.8499 13.581 80.6969 13.5198 80.5363 13.4587C80.3834 13.3898 80.2228 13.321 80.0698 13.2598C69.3935 8.9388 49.425 23.8214 43.3527 38.8876C36.5767 55.6975 39.8576 68.8518 55.1532 75.0542C55.3138 75.1153 55.4668 75.1765 55.6274 75.2377C55.7804 75.3065 55.941 75.3754 56.0939 75.4365C71.3895 81.6389 82.8766 74.4576 89.6525 57.6477C95.7249 42.5815 91.6868 17.9785 81.0105 13.6422Z" fill="#C5C5C5"/>
<path d="M80.0105 12.6422C79.8499 12.581 79.6969 12.5198 79.5363 12.4587C79.3834 12.3898 79.2228 12.321 79.0698 12.2598C68.3935 7.9388 48.425 22.8214 42.3527 37.8876C35.5767 54.6975 38.8576 67.8518 54.1532 74.0542C54.3138 74.1153 54.4668 74.1765 54.6274 74.2377C54.7804 74.3065 54.941 74.3754 55.0939 74.4365C70.3895 80.6389 81.8766 73.4576 88.6525 56.6477C94.7249 41.5815 90.6868 16.9785 80.0105 12.6422Z" fill="#832990"/>
<path fill-rule="evenodd" clip-rule="evenodd" d="M56.4552 38.0192L63.089 38.9716L65.9072 33.0264L68.4282 39.1071L74.9456 38.6311L70.958 43.8992L74.6199 49.3049L67.96 48.4534L65.0915 54.3856L62.6094 48.1536L56.0919 48.6296L60.104 43.4754L56.4552 38.0192Z" fill="#FFCD32"/>
<g opacity="0.33">
<g opacity="0.33">
<path opacity="0.33" d="M65.5482 30.8816C61.2196 35.0802 55.8279 36.4645 53.5106 33.956C51.1933 31.4552 52.8223 26.0176 57.1509 21.8189C61.4796 17.6203 66.8713 16.236 69.1886 18.7369C71.5059 21.2453 69.8769 26.6829 65.5482 30.8816Z" fill="white"/>
</g>
</g>
<path d="M83.743 15.2109C87.8346 26.4303 87.911 43.2861 83.0776 55.2625C78.9249 65.5488 73.472 72.8602 66.8643 76.5923C76.3628 75.9422 83.743 68.8221 88.6452 56.6544C93.9528 43.4926 91.5438 23.0652 83.743 15.2109Z" fill="#8C2D9A"/>
</svg>
